<svg xmlns="http://www.w3.org/2000/svg" xmlns:xlink="http://www.w3.org/1999/xlink" width="16" height="16" viewBox="0 0 16 16">
    <defs>
        <path id="lwe788a3va" d="M10.222 4.033c-1.71-1.71-4.48-1.71-6.19 0-1.709 1.71-1.709 4.48 0 6.19 1.71 1.709 4.48 1.709 6.19 0 1.71-1.71 1.71-4.48 0-6.19m4.552 10.741c-.342.341-.896.341-1.239 0l-2.756-2.757c-2.4 1.794-5.804 1.624-7.984-.557-2.393-2.392-2.393-6.272 0-8.665 2.392-2.393 6.273-2.393 8.665 0 2.181 2.18 2.351 5.584.557 7.984l2.757 2.757c.341.342.341.896 0 1.238"/>
    </defs>
    <g fill="none" fill-rule="evenodd">
        <g>
            <mask id="o2klzjksvb" fill="#fff">
                <use xlink:href="#lwe788a3va"/>
            </mask>
            <use fill="#000" xlink:href="#lwe788a3va"/>
            <g fill="#9FA7BB" mask="url(#o2klzjksvb)">
                <g>
                    <path d="M0 0H23V23H0z"/>
                </g>
            </g>
        </g>
    </g>
</svg>
